<svg xmlns="http://www.w3.org/2000/svg" xmlns:xlink="http://www.w3.org/1999/xlink" width="500" zoomAndPan="magnify" viewBox="0 0 375 374.999991" height="500" preserveAspectRatio="xMidYMid meet" version="1.0"><defs><g/></defs><rect x="-37.5" width="450" fill="#ffffff" y="-37.499999" height="449.999989" fill-opacity="1"/><rect x="-37.5" width="450" fill="#ffffff" y="-37.499999" height="449.999989" fill-opacity="1"/><path fill="#3871c1" d="M 111.4375 223.988281 L 98.035156 203.546875 C 98.035156 203.546875 115.320312 181.136719 122.152344 139.945312 C 122.152344 139.945312 127.117188 140.949219 133.066406 133.191406 L 141.1875 166.835938 L 135.167969 214.644531 L 111.4375 223.988281 " fill-opacity="1" fill-rule="nonzero"/><path fill="#4fa9e3" d="M 187.261719 223.988281 L 208.914062 223.988281 C 206.949219 218.96875 205.140625 213.796875 203.476562 208.589844 C 198.566406 213.894531 193.132812 219.058594 187.261719 223.988281 " fill-opacity="1" fill-rule="nonzero"/><path fill="#4fa9e3" d="M 169.179688 201.339844 C 179.164062 193.941406 188.007812 185.628906 195.046875 177.195312 C 189.53125 152.699219 187.285156 133.191406 187.285156 133.191406 C 183.933594 134.605469 180.597656 135.648438 177.3125 136.414062 L 177.3125 151.050781 C 177.3125 152.027344 176.523438 152.816406 175.546875 152.816406 C 174.570312 152.816406 173.78125 152.027344 173.78125 151.050781 L 173.78125 137.136719 C 169.03125 137.976562 164.445312 138.265625 160.175781 138.265625 C 154.808594 138.265625 148.9375 137.808594 142.871094 136.378906 L 142.871094 151.050781 C 142.871094 152.027344 142.078125 152.816406 141.105469 152.816406 C 140.128906 152.816406 139.335938 152.027344 139.335938 151.050781 L 139.335938 135.4375 C 137.257812 134.816406 135.164062 134.074219 133.066406 133.191406 C 133.066406 133.191406 127.273438 183.507812 111.4375 223.988281 L 124.230469 223.988281 C 138.410156 220.296875 154.484375 212.230469 169.179688 201.339844 " fill-opacity="1" fill-rule="nonzero"/><path fill="#f08114" d="M 180.410156 220.167969 C 138.558594 251.183594 93.015625 260.652344 78.6875 241.316406 C 77.101562 239.175781 75.964844 236.777344 75.253906 234.15625 C 75.234375 239.394531 76.546875 244.03125 79.335938 247.796875 C 92.828125 265.996094 135.695312 257.082031 175.089844 227.886719 C 190.988281 216.105469 203.890625 202.820312 212.738281 189.96875 C 204.097656 200.355469 193.164062 210.714844 180.410156 220.167969 " fill-opacity="1" fill-rule="nonzero"/><path fill="#f08114" d="M 230.816406 170.195312 C 231.738281 153.03125 228.300781 134.675781 228.300781 134.675781 C 228.300781 134.675781 216.421875 147.484375 202 155.191406 L 211.964844 159.492188 C 205.074219 174.21875 190.917969 190.808594 171.851562 204.9375 C 137.253906 230.578125 99.601562 238.40625 87.753906 222.421875 C 80.851562 213.105469 84.238281 197.761719 95.109375 181.5 C 79.601562 202.0625 74.046875 222.078125 82.703125 233.761719 C 96.195312 251.964844 139.0625 243.050781 178.457031 213.855469 C 199.234375 198.457031 214.890625 180.5 223.074219 164.289062 L 230.816406 170.195312 " fill-opacity="1" fill-rule="nonzero"/><path fill="#3871c1" d="M 144.71875 151.261719 L 144.71875 128.277344 C 144.71875 119.757812 151.535156 112.691406 160.058594 112.628906 C 168.648438 112.566406 175.632812 119.511719 175.632812 128.085938 L 175.632812 151.261719 C 175.632812 152.238281 176.421875 153.03125 177.398438 153.03125 C 178.375 153.03125 179.164062 152.238281 179.164062 151.261719 L 179.164062 128.324219 C 179.164062 117.875 170.816406 109.199219 160.363281 109.097656 C 149.808594 108.996094 141.1875 117.550781 141.1875 128.085938 L 141.1875 151.261719 C 141.1875 152.238281 141.976562 153.03125 142.953125 153.03125 C 143.929688 153.03125 144.71875 152.238281 144.71875 151.261719 " fill-opacity="1" fill-rule="nonzero"/><path stroke-linecap="butt" transform="matrix(0.881226, 0, 0, 0.881226, 124.708912, 169.113666)" fill="none" stroke-linejoin="miter" d="M 4.049394 41.990941 C 4.727603 42.52287 5.888982 43.24984 7.537963 44.180716 C 9.195809 45.098294 10.782731 45.5593 12.289864 45.5593 C 13.801429 45.5593 14.554995 44.974177 14.554995 43.803933 C 14.554995 43.263138 14.342224 42.793268 13.91668 42.385455 C 13.491137 41.977643 12.710974 41.507772 11.576192 40.975843 C 10.436977 40.439481 9.581457 40.022803 9.009633 39.725809 C 8.446675 39.424383 7.688676 38.923483 6.744502 38.231975 C 5.80476 37.536034 5.086656 36.813497 4.581323 36.068796 C 3.158412 34.0386 2.449173 31.458743 2.449173 28.333659 C 2.449173 25.208575 3.610552 22.571093 5.937742 20.416779 C 8.273798 18.266899 11.323525 17.189742 15.091357 17.189742 C 17.64905 17.189742 20.016135 17.469005 22.188179 18.023098 C 24.355791 18.568325 25.477275 19.28643 25.543766 20.172979 C 25.543766 20.283797 25.543766 20.394616 25.543766 20.496569 C 25.543766 21.737737 25.153685 23.315794 24.373522 25.221873 C 23.593359 27.12352 23.039266 28.178513 22.720109 28.386852 C 20.446111 27.216608 18.411482 26.631486 16.611788 26.631486 C 14.816527 26.631486 13.91668 27.265368 13.91668 28.541998 C 13.91668 29.326594 14.577159 30.018101 15.898117 30.625387 C 16.177379 30.776101 16.580759 30.975574 17.108256 31.223808 C 17.644617 31.467609 18.260769 31.76017 18.956709 32.097058 C 19.65265 32.438379 20.397351 32.85949 21.195245 33.373688 C 21.993139 33.887886 22.857524 34.570529 23.7884 35.430481 C 25.672316 37.212444 26.612057 39.552932 26.612057 42.460812 C 26.612057 46.272971 25.561497 49.38919 23.460377 51.809468 C 21.368122 54.225313 18.136652 55.466481 13.761534 55.532972 C 11.624952 55.532972 9.696709 55.355662 7.967939 55.001043 C 6.248034 54.641991 4.749767 53.950483 3.464272 52.917653 C 2.187642 51.884824 1.549326 50.643656 1.549326 49.194149 C 1.549326 47.735777 1.815291 46.286269 2.342788 44.845628 C 2.883582 43.404986 3.450973 42.451946 4.049394 41.990941 Z M 59.995047 54.087898 C 59.995047 54.695184 58.199786 55.001043 54.604831 55.001043 C 51.018742 55.001043 49.227914 54.695184 49.227914 54.087898 L 49.227914 41.822497 L 41.754308 41.822497 L 41.754308 54.087898 C 41.754308 54.695184 39.959047 55.001043 36.364092 55.001043 C 32.778003 55.001043 30.987175 54.695184 30.987175 54.087898 L 30.987175 18.741202 C 30.987175 17.992069 32.778003 17.619718 36.364092 17.619718 C 39.959047 17.619718 41.754308 17.992069 41.754308 18.741202 L 41.754308 31.263702 L 49.227914 31.263702 L 49.227914 18.843156 C 49.227914 18.346688 50.114462 17.992069 51.883127 17.774864 C 52.814003 17.708373 53.718283 17.672911 54.604831 17.672911 L 57.326536 17.774864 C 59.104066 17.992069 59.995047 18.346688 59.995047 18.843156 Z M 81.187993 55.532972 C 76.196724 55.532972 72.127466 53.89729 68.975785 50.625925 C 65.83297 47.354561 64.263779 42.580496 64.263779 36.303731 C 64.263779 30.026967 65.850701 25.275066 69.028978 22.048029 C 72.211688 18.807694 76.316408 17.189742 81.343139 17.189742 C 86.378735 17.189742 90.439128 18.781097 93.52875 21.96824 C 96.631671 25.146517 98.178698 29.960476 98.178698 36.418983 C 98.178698 42.868624 96.596209 47.669285 93.426797 50.820966 C 90.266251 53.963781 86.188127 55.532972 81.187993 55.532972 Z M 81.214589 27.424947 C 79.512416 27.424947 78.085073 28.209542 76.932559 29.778733 C 75.775613 31.343492 75.199357 33.5377 75.199357 36.370223 C 75.199357 39.189447 75.749017 41.357059 76.85277 42.864192 C 77.956523 44.375757 79.401597 45.129323 81.187993 45.129323 C 82.983254 45.129323 84.441626 44.366892 85.563111 42.837595 C 86.684595 41.312731 87.24312 39.127389 87.24312 36.290433 C 87.24312 33.444612 86.666864 31.254837 85.509918 29.729973 C 84.357404 28.191811 82.925628 27.424947 81.214589 27.424947 Z M 107.079647 55.102996 C 103.843744 55.102996 102.225793 54.748376 102.225793 54.034705 L 102.225793 19.481471 C 102.225793 18.275764 102.775453 17.672911 103.879206 17.672911 L 113.263324 17.672911 C 118.52499 17.672911 122.319418 18.754501 124.646608 20.926545 C 126.978231 23.098589 128.148476 26.241404 128.148476 30.368288 C 128.148476 33.777068 127.044722 36.906585 124.841649 39.752406 C 123.737896 41.166451 122.119945 42.305666 119.983362 43.165618 C 117.855646 44.016705 115.368877 44.442248 112.523055 44.442248 L 112.523055 53.985945 C 112.523055 54.411488 111.853711 54.704049 110.519455 54.86806 C 109.189632 55.027639 108.045985 55.102996 107.079647 55.102996 Z M 112.523055 26.955076 L 112.523055 35.377288 L 113.214563 35.377288 C 114.464597 35.377288 115.515157 34.987207 116.366244 34.207044 C 117.212898 33.418016 117.638441 32.314263 117.638441 30.900217 C 117.638441 29.477307 117.34588 28.466641 116.756325 27.868221 C 116.171203 27.256502 115.133941 26.955076 113.644539 26.955076 Z M 112.523055 26.955076 " stroke="#ffffff" stroke-width="3.999998" stroke-opacity="1" stroke-miterlimit="4"/><g fill="#3871c1" fill-opacity="1"><g transform="translate(124.708912, 217.581112)"><g><path d="M 3.578125 -11.46875 C 4.171875 -11 5.195312 -10.351562 6.65625 -9.53125 C 8.113281 -8.71875 9.503906 -8.3125 10.828125 -8.3125 C 12.160156 -8.3125 12.828125 -8.832031 12.828125 -9.875 C 12.828125 -10.34375 12.640625 -10.753906 12.265625 -11.109375 C 11.890625 -11.472656 11.195312 -11.890625 10.1875 -12.359375 C 9.1875 -12.828125 8.4375 -13.191406 7.9375 -13.453125 C 7.4375 -13.722656 6.769531 -14.164062 5.9375 -14.78125 C 5.113281 -15.394531 4.484375 -16.03125 4.046875 -16.6875 C 2.785156 -18.46875 2.15625 -20.738281 2.15625 -23.5 C 2.15625 -26.257812 3.179688 -28.585938 5.234375 -30.484375 C 7.285156 -32.378906 9.972656 -33.328125 13.296875 -33.328125 C 15.554688 -33.328125 17.640625 -33.082031 19.546875 -32.59375 C 21.460938 -32.101562 22.453125 -31.46875 22.515625 -30.6875 C 22.515625 -30.59375 22.515625 -30.5 22.515625 -30.40625 C 22.515625 -29.3125 22.164062 -27.925781 21.46875 -26.25 C 20.78125 -24.570312 20.296875 -23.640625 20.015625 -23.453125 C 18.015625 -24.484375 16.222656 -25 14.640625 -25 C 13.054688 -25 12.265625 -24.4375 12.265625 -23.3125 C 12.265625 -22.625 12.84375 -22.015625 14 -21.484375 C 14.25 -21.359375 14.609375 -21.1875 15.078125 -20.96875 C 15.554688 -20.75 16.097656 -20.488281 16.703125 -20.1875 C 17.316406 -19.882812 17.972656 -19.503906 18.671875 -19.046875 C 19.378906 -18.597656 20.144531 -18 20.96875 -17.25 C 22.625 -15.6875 23.453125 -13.617188 23.453125 -11.046875 C 23.453125 -7.691406 22.523438 -4.945312 20.671875 -2.8125 C 18.828125 -0.6875 15.976562 0.40625 12.125 0.46875 C 10.25 0.46875 8.550781 0.3125 7.03125 0 C 5.507812 -0.3125 4.179688 -0.921875 3.046875 -1.828125 C 1.921875 -2.742188 1.359375 -3.84375 1.359375 -5.125 C 1.359375 -6.40625 1.59375 -7.679688 2.0625 -8.953125 C 2.53125 -10.222656 3.035156 -11.0625 3.578125 -11.46875 Z M 3.578125 -11.46875 "/></g></g></g><g fill="#3871c1" fill-opacity="1"><g transform="translate(149.662759, 217.581112)"><g><path d="M 27.921875 -0.796875 C 27.921875 -0.265625 26.335938 0 23.171875 0 C 20.003906 0 18.421875 -0.265625 18.421875 -0.796875 L 18.421875 -11.609375 L 11.84375 -11.609375 L 11.84375 -0.796875 C 11.84375 -0.265625 10.257812 0 7.09375 0 C 3.925781 0 2.34375 -0.265625 2.34375 -0.796875 L 2.34375 -31.953125 C 2.34375 -32.617188 3.925781 -32.953125 7.09375 -32.953125 C 10.257812 -32.953125 11.84375 -32.617188 11.84375 -31.953125 L 11.84375 -20.921875 L 18.421875 -20.921875 L 18.421875 -31.859375 C 18.421875 -32.304688 19.207031 -32.625 20.78125 -32.8125 C 21.59375 -32.875 22.390625 -32.90625 23.171875 -32.90625 L 25.5625 -32.8125 C 27.132812 -32.625 27.921875 -32.304688 27.921875 -31.859375 Z M 27.921875 -0.796875 "/></g></g></g><g fill="#3871c1" fill-opacity="1"><g transform="translate(179.926945, 217.581112)"><g><path d="M 16.328125 0.46875 C 11.929688 0.46875 8.34375 -0.96875 5.5625 -3.84375 C 2.789062 -6.726562 1.40625 -10.9375 1.40625 -16.46875 C 1.40625 -22 2.804688 -26.191406 5.609375 -29.046875 C 8.421875 -31.898438 12.039062 -33.328125 16.46875 -33.328125 C 20.90625 -33.328125 24.484375 -31.921875 27.203125 -29.109375 C 29.929688 -26.304688 31.296875 -22.0625 31.296875 -16.375 C 31.296875 -10.6875 29.898438 -6.457031 27.109375 -3.6875 C 24.328125 -0.914062 20.734375 0.46875 16.328125 0.46875 Z M 16.34375 -24.296875 C 14.84375 -24.296875 13.582031 -23.601562 12.5625 -22.21875 C 11.550781 -20.84375 11.046875 -18.910156 11.046875 -16.421875 C 11.046875 -13.929688 11.53125 -12.019531 12.5 -10.6875 C 13.46875 -9.351562 14.742188 -8.6875 16.328125 -8.6875 C 17.910156 -8.6875 19.195312 -9.359375 20.1875 -10.703125 C 21.175781 -12.054688 21.671875 -13.984375 21.671875 -16.484375 C 21.671875 -18.992188 21.160156 -20.921875 20.140625 -22.265625 C 19.117188 -23.617188 17.851562 -24.296875 16.34375 -24.296875 Z M 16.34375 -24.296875 "/></g></g></g><g fill="#3871c1" fill-opacity="1"><g transform="translate(212.63482, 217.581112)"><g><path d="M 6.4375 0.09375 C 3.582031 0.09375 2.15625 -0.21875 2.15625 -0.84375 L 2.15625 -31.296875 C 2.15625 -32.367188 2.644531 -32.90625 3.625 -32.90625 L 11.890625 -32.90625 C 16.523438 -32.90625 19.867188 -31.945312 21.921875 -30.03125 C 23.972656 -28.125 25 -25.351562 25 -21.71875 C 25 -18.707031 24.03125 -15.945312 22.09375 -13.4375 C 21.125 -12.1875 19.695312 -11.1875 17.8125 -10.4375 C 15.9375 -9.6875 13.742188 -9.3125 11.234375 -9.3125 L 11.234375 -0.890625 C 11.234375 -0.515625 10.644531 -0.253906 9.46875 -0.109375 C 8.289062 0.0234375 7.28125 0.09375 6.4375 0.09375 Z M 11.234375 -24.71875 L 11.234375 -17.296875 L 11.84375 -17.296875 C 12.9375 -17.296875 13.859375 -17.640625 14.609375 -18.328125 C 15.367188 -19.015625 15.75 -19.984375 15.75 -21.234375 C 15.75 -22.492188 15.488281 -23.390625 14.96875 -23.921875 C 14.445312 -24.453125 13.53125 -24.71875 12.21875 -24.71875 Z M 11.234375 -24.71875 "/></g></g></g><path stroke-linecap="butt" transform="matrix(0.881226, 0, 0, 0.881226, 124.708912, 205.538672)" fill="none" stroke-linejoin="miter" d="M 6.185976 45.821711 L 6.185976 26.836271 L 2.39598 26.836271 C 1.79756 26.836271 1.372017 26.073839 1.11935 24.544543 C 1.017397 23.799842 0.964204 23.03741 0.964204 22.252814 C 0.964204 21.472652 1.017397 20.71022 1.11935 19.961086 C 1.372017 18.436222 1.79756 17.673791 2.39598 17.673791 L 20.326427 17.673791 C 20.924848 17.673791 21.33266 18.436222 21.549864 19.961086 C 21.687279 20.71022 21.758203 21.472652 21.758203 22.252814 C 21.758203 23.03741 21.687279 23.799842 21.549864 24.544543 C 21.33266 26.073839 20.924848 26.836271 20.326427 26.836271 L 16.744771 26.836271 L 16.744771 45.821711 L 20.481573 45.821711 C 21.079994 45.821711 21.505537 46.588575 21.758203 48.126737 C 21.904484 48.871438 21.97984 49.63387 21.97984 50.418465 C 21.97984 51.198628 21.904484 51.96106 21.758203 52.710194 C 21.505537 54.235057 21.079994 55.001922 20.481573 55.001922 L 2.511232 55.001922 C 1.903946 55.001922 1.491701 54.235057 1.274496 52.710194 C 1.137081 51.96106 1.066157 51.198628 1.066157 50.418465 C 1.066157 49.63387 1.137081 48.871438 1.274496 48.126737 C 1.491701 46.588575 1.903946 45.821711 2.511232 45.821711 Z M 41.599162 54.14197 C 41.599162 54.851209 39.839363 55.210261 36.315332 55.210261 C 32.800167 55.210261 31.040368 54.851209 31.040368 54.14197 L 31.040368 27.372633 L 24.635054 27.372633 C 24.036633 27.372633 23.61109 26.557008 23.358424 24.925759 C 23.25647 24.141163 23.203278 23.343269 23.203278 22.527645 C 23.203278 21.703154 23.25647 20.900828 23.358424 20.120665 C 23.61109 18.489415 24.036633 17.673791 24.635054 17.673791 L 47.836032 17.673791 C 48.443318 17.673791 48.868861 18.489415 49.112662 20.120665 C 49.227914 20.900828 49.281106 21.703154 49.281106 22.527645 C 49.281106 23.343269 49.227914 24.141163 49.112662 24.925759 C 48.868861 26.557008 48.443318 27.372633 47.836032 27.372633 L 41.599162 27.372633 Z M 41.599162 54.14197 " stroke="#ffffff" stroke-width="3.999998" stroke-opacity="1" stroke-miterlimit="4"/><g fill="#f08114" fill-opacity="1"><g transform="translate(124.708912, 254.006119)"><g><path d="M 5.453125 -8.078125 L 5.453125 -24.8125 L 2.109375 -24.8125 C 1.578125 -24.8125 1.203125 -25.488281 0.984375 -26.84375 C 0.890625 -27.5 0.84375 -28.171875 0.84375 -28.859375 C 0.84375 -29.546875 0.890625 -30.21875 0.984375 -30.875 C 1.203125 -32.226562 1.578125 -32.90625 2.109375 -32.90625 L 17.90625 -32.90625 C 18.4375 -32.90625 18.796875 -32.226562 18.984375 -30.875 C 19.109375 -30.21875 19.171875 -29.546875 19.171875 -28.859375 C 19.171875 -28.171875 19.109375 -27.5 18.984375 -26.84375 C 18.796875 -25.488281 18.4375 -24.8125 17.90625 -24.8125 L 14.765625 -24.8125 L 14.765625 -8.078125 L 18.046875 -8.078125 C 18.578125 -8.078125 18.953125 -7.40625 19.171875 -6.0625 C 19.296875 -5.40625 19.359375 -4.734375 19.359375 -4.046875 C 19.359375 -3.359375 19.296875 -2.679688 19.171875 -2.015625 C 18.953125 -0.671875 18.578125 0 18.046875 0 L 2.203125 0 C 1.671875 0 1.3125 -0.671875 1.125 -2.015625 C 1 -2.679688 0.9375 -3.359375 0.9375 -4.046875 C 0.9375 -4.734375 1 -5.40625 1.125 -6.0625 C 1.3125 -7.40625 1.671875 -8.078125 2.203125 -8.078125 Z M 5.453125 -8.078125 "/></g></g></g><g fill="#f08114" fill-opacity="1"><g transform="translate(144.86937, 254.006119)"><g><path d="M 16.5 -0.75 C 16.5 -0.125 14.945312 0.1875 11.84375 0.1875 C 8.738281 0.1875 7.1875 -0.125 7.1875 -0.75 L 7.1875 -24.34375 L 1.546875 -24.34375 C 1.015625 -24.34375 0.640625 -25.066406 0.421875 -26.515625 C 0.328125 -27.203125 0.28125 -27.90625 0.28125 -28.625 C 0.28125 -29.34375 0.328125 -30.046875 0.421875 -30.734375 C 0.640625 -32.179688 1.015625 -32.90625 1.546875 -32.90625 L 22 -32.90625 C 22.53125 -32.90625 22.90625 -32.179688 23.125 -30.734375 C 23.21875 -30.046875 23.265625 -29.34375 23.265625 -28.625 C 23.265625 -27.90625 23.21875 -27.203125 23.125 -26.515625 C 22.90625 -25.066406 22.53125 -24.34375 22 -24.34375 L 16.5 -24.34375 Z M 16.5 -0.75 "/></g></g></g></svg>